<?xml version="1.0" standalone="no"?><!DOCTYPE svg PUBLIC "-//W3C//DTD SVG 1.1//EN" "http://www.w3.org/Graphics/SVG/1.1/DTD/svg11.dtd"><svg t="1501223154223" class="icon" style="" viewBox="0 0 1024 1024" version="1.1" xmlns="http://www.w3.org/2000/svg" p-id="1006" xmlns:xlink="http://www.w3.org/1999/xlink" width="200" height="200"><defs><style type="text/css"></style></defs><path d="M512.022 230.283v563.434-563.434zM512.001 793.717L280.796 562.512v-65.408L488.892 705.22V230.283h46.241V705.22L743.25 497.104v65.408L512.001 793.717z" p-id="1007" fill="#1296db"></path><path d="M512.001 1022C230.792 1022 2 793.231 2 512 2 230.791 230.792 2 512.001 2 793.232 2 1022 230.791 1022 512c0 281.231-228.812 510-509.999 510z m0-990.851c-265.138 0-480.85 215.712-480.85 480.851s215.712 480.873 480.85 480.873S992.873 777.139 992.873 512 777.139 31.149 512.001 31.149z" p-id="1008" fill="#1296db"></path></svg>